<svg width="73" height="66" viewBox="0 0 73 66" fill="none" xmlns="http://www.w3.org/2000/svg">
<path d="M18.4423 46.5069C17.5203 46.7711 16.7911 45.7115 17.3675 44.9447L39.4964 15.506C39.907 14.9598 40.7322 14.9771 41.1196 15.54L54.394 34.8333C54.7813 35.3963 54.5025 36.1732 53.8456 36.3614L18.4423 46.5069Z" fill="white" stroke="black" stroke-width="4"/>
<path d="M51.3378 22.7018C53.6943 26.1375 55.3032 29.5056 56.0367 32.1265C56.4062 33.447 56.522 34.4672 56.4686 35.1613C56.4353 35.5934 56.3503 35.7814 56.3098 35.8476C56.2333 35.8616 56.0274 35.8732 55.6122 35.7486C54.9455 35.5485 54.0355 35.0731 52.9366 34.2528C50.7557 32.6247 48.193 29.9108 45.8365 26.4751C43.48 23.0394 41.871 19.6713 41.1376 17.0504C40.7681 15.7299 40.6523 14.7096 40.7057 14.0156C40.739 13.5835 40.8239 13.3955 40.8645 13.3292C40.9409 13.3153 41.1469 13.3037 41.562 13.4283C42.2287 13.6284 43.1388 14.1038 44.2377 14.9241C46.4186 16.5522 48.9813 19.2661 51.3378 22.7018ZM56.2876 35.8779C56.2875 35.8778 56.289 35.876 56.2923 35.8728C56.2893 35.8765 56.2877 35.878 56.2876 35.8779ZM56.3396 35.8404C56.3437 35.8384 56.3459 35.8377 56.346 35.8378C56.3461 35.838 56.344 35.839 56.3396 35.8404ZM40.8867 13.299C40.8868 13.2991 40.8853 13.3009 40.882 13.304C40.8849 13.3004 40.8866 13.2989 40.8867 13.299ZM40.8347 13.3364C40.8306 13.3384 40.8284 13.3392 40.8283 13.339C40.8282 13.3389 40.8303 13.3379 40.8347 13.3364Z" fill="white" stroke="black" stroke-width="4"/>
</svg>
