<svg width="21" height="20" viewBox="0 0 21 20" fill="none" xmlns="http://www.w3.org/2000/svg">
<path d="M10.6941 6.66525C8.85791 6.66525 7.3594 8.16376 7.3594 10C7.3594 11.8362 8.85791 13.3348 10.6941 13.3348C12.5304 13.3348 14.0289 11.8362 14.0289 10C14.0289 8.16376 12.5304 6.66525 10.6941 6.66525ZM20.6959 10C20.6959 8.61907 20.7084 7.25064 20.6309 5.87221C20.5533 4.27113 20.1881 2.85017 19.0173 1.67938C17.844 0.506085 16.4255 0.14334 14.8244 0.065788C13.4435 -0.0117644 12.0751 0.000744113 10.6967 0.000744113C9.31572 0.000744113 7.9473 -0.0117644 6.56886 0.065788C4.96778 0.14334 3.54682 0.508587 2.37603 1.67938C1.20274 2.85267 0.839996 4.27113 0.762443 5.87221C0.684891 7.25314 0.697399 8.62157 0.697399 10C0.697399 11.3784 0.684891 12.7494 0.762443 14.1278C0.839996 15.7289 1.20524 17.1498 2.37603 18.3206C3.54933 19.4939 4.96778 19.8567 6.56886 19.9342C7.9498 20.0118 9.31822 19.9993 10.6967 19.9993C12.0776 19.9993 13.446 20.0118 14.8244 19.9342C16.4255 19.8567 17.8465 19.4914 19.0173 18.3206C20.1906 17.1473 20.5533 15.7289 20.6309 14.1278C20.7109 12.7494 20.6959 11.3809 20.6959 10ZM10.6941 15.131C7.85473 15.131 5.56319 12.8394 5.56319 10C5.56319 7.16058 7.85473 4.86903 10.6941 4.86903C13.5336 4.86903 15.8251 7.16058 15.8251 10C15.8251 12.8394 13.5336 15.131 10.6941 15.131ZM16.0353 5.8572C15.3723 5.8572 14.8369 5.32184 14.8369 4.65889C14.8369 3.99594 15.3723 3.46058 16.0353 3.46058C16.6982 3.46058 17.2336 3.99594 17.2336 4.65889C17.2338 4.81631 17.2029 4.97222 17.1428 5.1177C17.0826 5.26317 16.9943 5.39535 16.883 5.50666C16.7717 5.61798 16.6395 5.70624 16.4941 5.76639C16.3486 5.82654 16.1927 5.8574 16.0353 5.8572Z" fill="#AEAEAE"/>
</svg>
