<svg width="21" height="20" viewBox="0 0 21 20" fill="none" xmlns="http://www.w3.org/2000/svg">
<path fill-rule="evenodd" clip-rule="evenodd" d="M0.0629885 1.67091C0.0629885 1.22776 0.23903 0.802756 0.552386 0.4894C0.865743 0.176044 1.29074 2.22756e-06 1.7339 2.22756e-06H18.3903C18.6099 -0.000356456 18.8274 0.0426049 19.0304 0.126426C19.2334 0.210248 19.4178 0.333284 19.5732 0.48849C19.7286 0.643696 19.8518 0.828024 19.9359 1.03092C20.0199 1.23382 20.0631 1.4513 20.063 1.67091V18.3273C20.0632 18.5469 20.0202 18.7645 19.9362 18.9675C19.8523 19.1705 19.7292 19.3549 19.5739 19.5103C19.4186 19.6656 19.2342 19.7889 19.0313 19.8729C18.8283 19.9569 18.6108 20.0001 18.3912 20H1.7339C1.51439 20 1.29704 19.9568 1.09426 19.8727C0.891475 19.7887 0.707235 19.6655 0.552065 19.5103C0.396895 19.355 0.273835 19.1707 0.189918 18.9679C0.106 18.7651 0.0628691 18.5477 0.0629885 18.3282V1.67091ZM7.97935 7.62546H10.6875V8.98546C11.0784 8.20364 12.0784 7.5 13.5812 7.5C16.4621 7.5 17.1448 9.05727 17.1448 11.9145V17.2073H14.2294V12.5655C14.2294 10.9382 13.8384 10.02 12.8457 10.02C11.4684 10.02 10.8957 11.01 10.8957 12.5655V17.2073H7.97935V7.62546ZM2.97935 17.0827H5.89572V7.5H2.97935V17.0818V17.0827ZM6.31299 4.37455C6.31849 4.62425 6.27405 4.87254 6.1823 5.10483C6.09054 5.33713 5.95331 5.54876 5.77865 5.7273C5.604 5.90585 5.39544 6.0477 5.16522 6.14455C4.935 6.2414 4.68775 6.29129 4.43799 6.29129C4.18823 6.29129 3.94098 6.2414 3.71076 6.14455C3.48054 6.0477 3.27198 5.90585 3.09732 5.7273C2.92267 5.54876 2.78544 5.33713 2.69368 5.10483C2.60192 4.87254 2.55749 4.62425 2.56299 4.37455C2.57378 3.88441 2.77607 3.41799 3.12652 3.07517C3.47698 2.73235 3.94774 2.54038 4.43799 2.54038C4.92824 2.54038 5.399 2.73235 5.74946 3.07517C6.09991 3.41799 6.3022 3.88441 6.31299 4.37455Z" fill="#AEAEAE"/>
</svg>
